<svg 
xmlns="http://www.w3.org/2000/svg" 
viewBox="0 0 180 180"
>
    <style>
        .wrapper { fill:#e6e6e6; }
        .signet { fill:#1a1a1a }

        @media (prefers-color-scheme: dark) {
        .wrapper { fill: #292929 }
        .signet { fill: #f0f0f0 }
        }

    </style>
<rect class="wrapper" width="180" height="180" rx="14" ry="14"/>
<path class="signet" d="m104.03,158.83h-62.93v-13.77c0-6.74,5.02-12.37,11.68-13.1,12.27-1.34,32.85-5.99,32.85-21.95h8.57c0,16.54-14.76,27.65-40.49,30.47-2.31.25-4.04,2.22-4.04,4.58v5.2h54.36c17.07,0,30.97-13.89,30.97-30.97l-.11-58.21c0-17.29-14.06-31.35-31.34-31.35h-9.46v71.25h-16.21c-21.21,0-39.33-15.82-41.25-36-1.09-11.41,2.53-22.33,10.19-30.75,7.55-8.31,18.32-13.07,29.54-13.07v8.57c-8.81,0-17.26,3.74-23.2,10.26-6.01,6.61-8.85,15.19-8,24.17,1.51,15.84,15.88,28.25,32.72,28.25h7.64V21.17h18.03c22.01,0,39.91,17.9,39.91,39.91l.11,58.21c0,21.81-17.74,39.55-39.54,39.55Z"/>
</svg>