<?xml version="1.0" encoding="UTF-8"?><svg id="a" xmlns="http://www.w3.org/2000/svg" viewBox="0 0 28 28"><path d="M0,20.03v-.55H.42c.64,0,1.03-.05,1.18-.16s.22-.33,.22-.68V9.35c0-.34-.07-.56-.22-.67s-.54-.16-1.17-.16h-.42v-.55H6.48c1.13,0,2.07,.3,2.82,.9s1.13,1.29,1.13,2.08c0,.65-.28,1.23-.84,1.75s-1.27,.86-2.14,1.03c.98,.1,1.79,.45,2.43,1.04s.97,1.26,.97,2.03c0,.86-.37,1.62-1.11,2.27s-1.68,.97-2.82,.97H0Zm3.28-6.46h2.56c.91,0,1.6-.27,2.09-.82s.73-1.14,.73-1.79c0-.57-.19-1.12-.58-1.65s-.97-.78-1.75-.78h-2.19c-.4,0-.65,.04-.73,.12s-.13,.28-.13,.59v4.33Zm0,5.21c0,.3,.04,.5,.13,.58s.33,.12,.73,.12h2.21c.84,0,1.51-.28,2-.83s.73-1.18,.73-1.87-.21-1.34-.64-1.93-1.04-.89-1.84-.89H3.28v4.82Z" style="fill:#7967ff;"/><path d="M10.85,20.03v-.5h.47c.66,0,1.07-.05,1.22-.14,.15-.09,.23-.3,.23-.61V10.42c0-.3-.08-.5-.23-.6s-.56-.14-1.22-.14h-.47v-.5c.41,.03,1.32,.05,2.71,.05s2.27-.02,2.68-.05v.5h-.46c-.66,0-1.07,.05-1.22,.14s-.23,.3-.23,.6v8.36c0,.31,.08,.51,.23,.6s.56,.15,1.22,.15h.46v.5c-.41-.03-1.31-.05-2.7-.05s-2.28,.02-2.69,.05Z" style="fill:#7967ff;"/><path d="M17.15,20.02v-.5h.42c.64,0,1.03-.05,1.18-.14,.15-.09,.22-.3,.22-.61V10.41c0-.3-.07-.5-.22-.6s-.54-.14-1.17-.14h-.42v-.5h6.48c1.13,0,2.07,.27,2.82,.81,.75,.54,1.13,1.16,1.13,1.87,0,.58-.28,1.11-.84,1.57s-1.27,.77-2.14,.92c.98,.09,1.79,.4,2.43,.93s.97,1.14,.97,1.82c0,.78-.37,1.46-1.11,2.04-.74,.58-1.68,.87-2.82,.87h-6.92Zm3.28-5.82h2.56c.91,0,1.6-.25,2.09-.74s.73-1.03,.73-1.61c0-.52-.19-1.01-.58-1.48s-.97-.71-1.75-.71h-2.19c-.4,0-.65,.04-.73,.11s-.13,.25-.13,.53v3.9Zm0,4.69c0,.27,.04,.45,.13,.52s.33,.11,.73,.11h2.21c.84,0,1.51-.25,2-.75,.49-.5,.73-1.06,.73-1.68s-.21-1.21-.64-1.74-1.04-.8-1.84-.8h-3.32v4.34Z" style="fill:#7967ff;"/></svg>