<?xml version="1.0" encoding="UTF-8"?><svg id="a" xmlns="http://www.w3.org/2000/svg" viewBox="0 0 28 28"><path d="M11.28,2.21c.23-.06,.48-.1,.71-.14,.06-.09,.11-.19,.18-.28-.3,.1-.6,.25-.88,.42Zm4.61-.42c.07,.09,.12,.19,.18,.28,.23,.04,.48,.08,.71,.14-.29-.17-.59-.32-.88-.42Z" style="fill:#7967ff;"/><path d="M19.22,3.06c-.77-.36-1.58-.65-2.44-.85,1.67,.98,3.06,2.83,3.99,5.19,.32-.05,.62-.11,.92-.17-.62-1.65-1.47-3.06-2.47-4.17Z" style="fill:#7967ff;"/><path d="M14.03,.03C6.33,.03,.06,6.3,.06,14s6.27,13.97,13.97,13.97,13.97-6.27,13.97-13.97S21.73,.03,14.03,.03Zm10.21,7.47c1.13,1.76,1.81,3.83,1.89,6.04h-3.26c-.04-1.94-.34-3.77-.87-5.42,.82-.18,1.57-.38,2.24-.61Zm-7.46-5.29c.86,.2,1.67,.48,2.44,.85,1.77,.85,3.31,2.1,4.47,3.65-.6,.2-1.27,.37-2,.52-.3,.06-.61,.12-.92,.17-.93,.17-1.94,.3-3,.39-.35-2.35-.92-4.4-1.7-5.72-.06-.09-.11-.19-.18-.28,.3,.1,.6,.25,.88,.42Zm1.43,11.33c0-1.63-.12-3.28-.32-4.82,1.13-.09,2.2-.23,3.19-.41,.51,1.58,.82,3.35,.86,5.23h-3.73Zm3.73,.93c-.04,1.88-.34,3.66-.86,5.24-.99-.18-2.06-.33-3.19-.42,.2-1.55,.31-3.19,.32-4.82h3.73Zm-11.16-.93c0-1.7,.12-3.31,.31-4.75,.95,.07,1.94,.09,2.94,.09s1.99-.03,2.94-.09c.19,1.44,.3,3.05,.31,4.75h-6.5Zm6.5,.93c0,1.71-.12,3.32-.31,4.76-.96-.07-1.96-.1-2.97-.1s-1.97,.03-2.92,.09c-.19-1.44-.3-3.05-.31-4.75h6.5ZM13.2,1.93c.28-.03,.55-.04,.83-.04s.55,0,.83,.04h0c.78,.92,1.52,3.06,1.97,5.93-.91,.06-1.85,.08-2.8,.08s-1.89-.03-2.8-.08c.45-2.88,1.18-5.01,1.97-5.93h0Zm-1.92,.28c.29-.17,.59-.32,.88-.42-.07,.09-.12,.19-.18,.28-.77,1.32-1.34,3.37-1.7,5.72-1.06-.09-2.07-.22-3-.39,.92-2.36,2.32-4.21,3.99-5.19ZM6.12,14.47h3.73c0,1.63,.12,3.28,.32,4.82-1.13,.1-2.2,.24-3.19,.42-.51-1.58-.82-3.35-.86-5.23Zm3.73-.93h-3.73c.04-1.88,.34-3.66,.86-5.24,.99,.19,2.06,.33,3.19,.42-.2,1.55-.31,3.19-.32,4.82Zm-1.01-10.48c-1,1.11-1.84,2.52-2.47,4.17-.74-.15-1.41-.33-2-.52,1.16-1.55,2.7-2.8,4.47-3.65ZM3.82,7.5c.66,.23,1.42,.44,2.24,.61-.52,1.65-.83,3.48-.87,5.42H1.93c.08-2.21,.76-4.28,1.89-6.04Zm0,12.99c-1.12-1.76-1.8-3.82-1.88-6.03h3.26c.04,1.94,.34,3.76,.87,5.41-.82,.18-1.57,.39-2.24,.61Zm.56,.81c.61-.2,1.28-.38,2-.54,.62,1.65,1.47,3.07,2.47,4.18-1.77-.85-3.3-2.1-4.47-3.64Zm6.91,4.49c-1.67-.98-3.07-2.83-4-5.2,.93-.16,1.95-.29,3.01-.38,.35,2.35,.92,4.4,1.7,5.72-.23-.04-.48-.08-.71-.14Zm3.58,.28c-.28,.03-.55,.04-.83,.04s-.55,0-.83-.04h0c-.78-.92-1.52-3.05-1.97-5.93,.9-.06,1.83-.08,2.78-.08s1.91,.03,2.83,.09c-.45,2.88-1.18,5-1.97,5.92h0Zm1.92-.28c-.23,.06-.48,.1-.71,.14,.77-1.32,1.34-3.37,1.7-5.72,1.06,.09,2.07,.22,3,.39-.92,2.36-2.32,4.21-3.99,5.19Zm2.44-.85c1-1.11,1.83-2.52,2.47-4.16,.73,.16,1.4,.34,1.99,.52-1.16,1.54-2.69,2.79-4.46,3.64Zm5.01-4.43c-.67-.23-1.42-.44-2.24-.61,.52-1.65,.84-3.49,.88-5.43h3.26c-.08,2.22-.76,4.28-1.9,6.04Z" style="fill:#7967ff;"/></svg>