<?xml version="1.0" encoding="UTF-8"?><svg id="a" xmlns="http://www.w3.org/2000/svg" viewBox="0 0 28 28"><g id="b"><path id="c" d="M19.77,18.88c-.7-.25-1.83-.26-2.33-.45-.39-.1-.75-.27-1.08-.5-.18-.22-.18-1.77-.18-1.77,.26-.25,.47-.54,.61-.87,.15-.56,.25-1.13,.3-1.71,0,0,.41,.17,.57-.64,.14-.71,.4-1.08,.33-1.6s-.36-.4-.36-.4c0,0,.36-.53,.36-2.32s-1.4-3.67-4.01-3.67-4.01,1.82-4.01,3.67,.35,2.32,.35,2.32c0,0-.29-.12-.36,.4s.19,.89,.33,1.6c.16,.83,.57,.64,.57,.64,.05,.58,.15,1.15,.3,1.71,.15,.33,.36,.62,.61,.87,0,0,0,1.55-.18,1.77-.33,.23-.69,.4-1.08,.5-.5,.19-1.63,.22-2.33,.47-1.73,.65-2.87,2.32-2.84,4.17H22.61c.04-1.85-1.1-3.53-2.84-4.17Z" style="fill:#7967ff;"/><path id="d" d="M6.8,15.85s1.48-.05,2.07-.58c-.96-1.46-.44-3.16-.64-4.75s-1.1-2.53-2.9-2.53h-.02c-1.74,0-2.67,.94-2.87,2.53-.2,1.59,.35,3.47-.63,4.75,.59,.53,2.08,.51,2.08,.51h0c.04,.35,.02,.7-.06,1.04-.21,.18-.47,.3-.74,.34-.54,.12-1.08,.27-1.61,.45-.86,.45-1.4,1.34-1.4,2.31H5.05c.14-.5,1.07-1.38,1.99-1.85,.49-.2,1.01-.31,1.53-.32,0,0,.24-.37-.54-.51-.41-.09-.81-.23-1.19-.42-.12-.14-.04-.97-.04-.97Z" style="fill:#7967ff;"/><path id="e" d="M21.19,15.85s-1.48-.05-2.07-.58c.96-1.46,.44-3.16,.64-4.75s1.1-2.53,2.9-2.53h.03c1.74,0,2.67,.94,2.87,2.53,.2,1.59-.35,3.47,.63,4.75-.59,.53-2.08,.51-2.08,.51h0c-.04,.35-.02,.7,.06,1.04,.21,.18,.47,.3,.74,.34,.54,.12,1.08,.27,1.61,.45,.86,.45,1.4,1.34,1.4,2.31h-4.98c-.14-.5-1.07-1.38-1.99-1.85-.49-.2-1.01-.31-1.53-.32,0,0-.24-.37,.54-.51,.41-.09,.81-.23,1.19-.42,.12-.14,.04-.97,.04-.97Z" style="fill:#7967ff;"/></g></svg>