<?xml version="1.0" encoding="UTF-8"?><svg id="a" xmlns="http://www.w3.org/2000/svg" viewBox="0 0 28 28"><path d="M21.47,14.93c-2.53,0-4.73,1.45-5.81,3.56l-3.28-1.63c.44-.87,.68-1.85,.68-2.88,0-.72-.12-1.42-.35-2.06l3.37-1.68c1.18,1.72,3.15,2.84,5.38,2.84,3.6,0,6.53-2.93,6.53-6.53S25.07,0,21.47,0s-6.53,2.93-6.53,6.53c0,1.04,.24,2.02,.68,2.88l-3.26,1.62c-1.06-2.14-3.28-3.6-5.82-3.6C2.93,7.44,0,10.37,0,13.97s2.93,6.53,6.53,6.53c2.23,0,4.2-1.12,5.38-2.84l3.39,1.69c-.24,.66-.36,1.37-.36,2.11,0,3.6,2.93,6.53,6.53,6.53s6.53-2.93,6.53-6.53-2.93-6.53-6.53-6.53Zm0-13.07c2.58,0,4.67,2.09,4.67,4.67s-2.09,4.67-4.67,4.67-4.67-2.09-4.67-4.67,2.09-4.67,4.67-4.67ZM6.53,18.64c-2.58,0-4.67-2.09-4.67-4.67s2.09-4.67,4.67-4.67,4.67,2.09,4.67,4.67-2.09,4.67-4.67,4.67Zm14.93,7.5c-2.58,0-4.67-2.09-4.67-4.67s2.09-4.67,4.67-4.67,4.67,2.09,4.67,4.67-2.09,4.67-4.67,4.67Z" style="fill:#7967ff;"/></svg>