<?xml version="1.0" encoding="UTF-8"?><svg id="a" xmlns="http://www.w3.org/2000/svg" viewBox="0 0 28 28"><path d="M14.03,27.72C6.33,27.72,.06,21.45,.06,13.75S6.33-.22,14.03-.22s13.97,6.27,13.97,13.97-6.27,13.97-13.97,13.97ZM14.03,1.65C7.35,1.65,1.92,7.08,1.92,13.75s5.43,12.1,12.1,12.1,12.1-5.43,12.1-12.1S20.7,1.65,14.03,1.65Z" style="fill:#7967ff;"/><g><path d="M15.04,16.08h-2.02c-.48,0-.89-.37-.93-.85l-.78-9.33c-.05-.54,.38-1.01,.93-1.01h3.57c.55,0,.97,.47,.93,1.01l-.78,9.33c-.04,.48-.44,.85-.93,.85Z" style="fill:#7967ff;"/><circle cx="14.03" cy="19.82" r="2.8" style="fill:#7967ff;"/></g></svg>