<?xml version="1.0" encoding="UTF-8"?><svg id="a" xmlns="http://www.w3.org/2000/svg" viewBox="0 0 178.88 58.28"><path d="m17.27,39.21v-18.65c0-.36.2-.56.56-.56h12.07c4.79,0,6.61,2.3,6.61,7.42v5.04c0,5.1-1.82,7.31-6.61,7.31h-12.07c-.36,0-.56-.2-.56-.56Zm12.38-2.07c3.02,0,4.14-.92,4.14-4.7v-5.01c0-3.78-1.09-4.76-4.14-4.76h-9.63v14.48h9.63Z"/><path d="m38.94,21.74v-2.66c0-.36.2-.56.56-.56h1.51c.36,0,.56.2.56.56v2.66c0,.36-.2.56-.56.56h-1.51c-.36,0-.56-.2-.56-.56Zm0,17.47v-14.62c0-.36.2-.56.56-.56h1.51c.36,0,.56.2.56.56v14.62c0,.36-.2.56-.56.56h-1.51c-.36,0-.56-.2-.56-.56Z"/><path d="m44.23,39.21v-1.37c0-.36.2-.56.56-.56h8.01c2.49,0,3.19-.5,3.19-1.93s-.48-1.79-2.74-2.02l-4.7-.48c-3.58-.36-4.65-1.74-4.65-4.54,0-2.94,1.71-4.28,5.63-4.28h7.78c.36,0,.56.2.56.56v1.37c0,.36-.2.56-.56.56h-7.73c-2.27,0-3.05.56-3.05,1.99,0,1.32.42,1.71,2.46,1.93l4.65.5c4.03.45,5.01,1.9,5.01,4.62,0,3.05-1.68,4.2-5.88,4.2h-7.98c-.36,0-.56-.2-.56-.56Z"/><path d="m60.47,33.55v-3.39c0-4.06,1.12-6.13,5.8-6.13h4.65c4.23,0,5.68,1.6,5.8,5.68,0,.39-.2.59-.56.59h-1.51c-.36,0-.56-.2-.56-.59-.08-2.63-.67-3.19-3.22-3.19h-4.54c-2.6,0-3.22.62-3.22,3.44v3.81c0,2.88.62,3.5,3.22,3.5h4.54c2.6,0,3.16-.62,3.22-3.25,0-.39.2-.59.56-.59h1.51c.36,0,.56.2.56.59-.14,4.23-1.62,5.74-5.8,5.74h-4.65c-4.68,0-5.8-2.04-5.8-6.22Z"/><path d="m78.67,33.55v-3.39c0-4.06,1.12-6.13,5.8-6.13h4.65c4.68,0,5.8,2.07,5.8,6.13v3.39c0,4.17-1.12,6.22-5.8,6.22h-4.65c-4.68,0-5.8-2.04-5.8-6.22Zm10.39,3.72c2.6,0,3.22-.62,3.22-3.5v-3.81c0-2.83-.62-3.44-3.22-3.44h-4.54c-2.6,0-3.22.62-3.22,3.44v3.81c0,2.88.62,3.5,3.22,3.5h4.54Z"/><path d="m103.14,39.35l-7.34-14.64c-.2-.39-.03-.67.39-.67h1.74c.31,0,.5.14.64.42l6.27,12.74,6.27-12.74c.14-.28.34-.42.64-.42h1.76c.42,0,.59.28.39.67l-7.36,14.64c-.14.28-.34.42-.64.42h-2.13c-.31,0-.5-.14-.64-.42Z"/><path d="m114.96,33.55v-3.39c0-4.06,1.12-6.13,5.8-6.13h3.95c4.68,0,5.8,2.07,5.8,6.13v2.52c0,.36-.2.56-.56.56h-12.35v.53c0,2.88.62,3.5,3.22,3.5h7.87c.36,0,.56.2.56.56v1.37c0,.36-.2.56-.56.56h-7.92c-4.68,0-5.8-2.04-5.8-6.22Zm12.91-2.69v-.9c0-2.83-.62-3.44-3.22-3.44h-3.84c-2.6,0-3.22.62-3.22,3.44v.9h10.28Z"/><path d="m142.6,24.03c.36,0,.56.2.56.56v1.37c0,.36-.2.56-.56.56h-3.81c-2.21,0-3.22.5-3.22,3.5v9.18c0,.36-.2.56-.56.56h-1.51c-.36,0-.56-.2-.56-.56v-14.62c0-.36.2-.56.56-.56h1.51c.36,0,.56.2.56.56v1.48c.62-1.37,1.9-2.04,4.45-2.04h2.58Z"/><path d="m147.66,44.72v-1.37c0-.36.2-.56.56-.56h7.48c2.6,0,3.28-.98,3.28-3.5v-2.27c-.56,1.48-1.76,2.18-4.42,2.18h-3.02c-4.68,0-5.8-2.07-5.8-6.22v-8.4c0-.36.2-.56.56-.56h1.51c.36,0,.56.2.56.56v8.62c0,2.88.62,3.5,3.19,3.5h4.23c2.18,0,3.19-.5,3.19-3.5v-8.6c0-.36.2-.56.56-.56h1.51c.36,0,.56.2.56.56v14.45c0,3.84-1.23,6.22-5.91,6.22h-7.48c-.36,0-.56-.2-.56-.56Z"/></svg>