<?xml version="1.0" encoding="UTF-8"?><svg id="a" xmlns="http://www.w3.org/2000/svg" viewBox="0 0 150 150"><circle cx="111" cy="60.44" r="7" style="fill:#fff; stroke:#171433; stroke-miterlimit:10; stroke-width:2px;"/><circle cx="74.72" cy="46.71" r="26.65" style="fill:#fff; stroke:#171433; stroke-width:3px;"/><rect x="62.91" y="32.16" width="23.04" height="29.09" rx="5.24" ry="5.24" style="fill:none; stroke:#171433; stroke-width:2px;"/><line id="b" x1="66.92" y1="38.33" x2="79.17" y2="38.33" style="fill:none; stroke:#171433; stroke-width:2px;"/><path id="c" d="M66.92,40.92h10.02" style="fill:none; stroke:#171433;"/><path id="d" d="M66.92,49.1h14.81" style="fill:none; stroke:#171433;"/><path id="e" d="M66.92,46.46h14.81" style="fill:none; stroke:#171433;"/><path id="f" d="M66.92,51.7h14.81" style="fill:none; stroke:#171433;"/><path id="g" d="M66.92,54.3h14.81" style="fill:none; stroke:#171433;"/><path id="h" d="M66.92,56.9h14.81" style="fill:none; stroke:#171433;"/><circle cx="104.77" cy="97.78" r="26.65" style="fill:#fff; stroke:#171433; stroke-width:3px;"/><circle cx="45.09" cy="97.78" r="26.51" style="fill:#fff; stroke:#171433; stroke-width:3px;"/><rect x="28.4" y="86.37" width="33.4" height="20.96" rx=".58" ry=".58" style="fill:none; stroke:#171433; stroke-width:2px;"/><g id="i"><line x1="28.82" y1="102.85" x2="62.33" y2="102.85" style="fill:none; stroke:#171433;"/><line x1="28.82" y1="98.85" x2="62.33" y2="98.85" style="fill:none; stroke:#171433;"/><line x1="28.82" y1="94.85" x2="62.33" y2="94.85" style="fill:none; stroke:#171433;"/><line x1="28.82" y1="90.85" x2="62.33" y2="90.85" style="fill:none; stroke:#171433;"/></g><path id="j" d="M34.06,107.91v-22.12" style="fill:none; stroke:#171433;"/><path id="k" d="M48.69,107.91v-22.12" style="fill:none; stroke:#171433;"/><circle cx="38" cy="60.44" r="7" style="fill:#fff; stroke:#171433; stroke-miterlimit:10; stroke-width:2px;"/><circle cx="74.72" cy="122.94" r="7" style="fill:#fff; stroke:#171433; stroke-miterlimit:10; stroke-width:2px;"/><path d="M96.79,97.73h3.77c.55,0,1,.45,1,1v9.97h-5.77v-9.97c0-.55,.45-1,1-1Z" style="fill:none; stroke:#171433; stroke-width:2px;"/><path d="M102.56,84.72h3.77c.55,0,1,.45,1,1v22.98h-5.77v-22.98c0-.55,.45-1,1-1Z" style="fill:none; stroke:#171433; stroke-width:2px;"/><path d="M108.33,90.79h4.42c.55,0,1,.45,1,1v16.91h-6.42v-16.91c0-.55,.45-1,1-1Z" style="fill:none; stroke:#171433; stroke-width:2px;"/></svg>